<mxfile host="app.diagrams.net" modified="2022-01-30T16:36:35.065Z" agent="5.0 (X11; Linux x86_64) AppleWebKit/537.36 (KHTML, like Gecko) Chrome/96.0.4664.110 Safari/537.36" etag="UOtnpjRxrpGW1howsUyA" version="16.2.4" type="github">
  <diagram id="UbNqxVZC1guhLLcriv7x" name="Page-1">
    <mxGraphModel dx="556" dy="705" grid="1" gridSize="10" guides="1" tooltips="1" connect="1" arrows="1" fold="1" page="1" pageScale="1" pageWidth="1600" pageHeight="900" background="#ffffff" math="0" shadow="0">
      <root>
        <mxCell id="0" />
        <mxCell id="1" parent="0" />
        <mxCell id="gleBi-C2RpiT2ec_90GJ-3" style="edgeStyle=orthogonalEdgeStyle;rounded=0;orthogonalLoop=1;jettySize=auto;html=1;entryX=0;entryY=0.25;entryDx=0;entryDy=0;fontSize=15;fontColor=#009900;fillColor=#f8cecc;strokeColor=#b85450;" parent="1" source="s_u18fh8TWqF_D3X__ss-1" target="s_u18fh8TWqF_D3X__ss-4" edge="1">
          <mxGeometry relative="1" as="geometry">
            <Array as="points">
              <mxPoint x="270" y="270" />
              <mxPoint x="270" y="270" />
            </Array>
          </mxGeometry>
        </mxCell>
        <mxCell id="gleBi-C2RpiT2ec_90GJ-4" value="(A) Client Authentication" style="edgeLabel;html=1;align=center;verticalAlign=middle;resizable=0;points=[];fontSize=15;fontColor=#CC0000;fontFamily=Roboto;fontSource=https%3A%2F%2Ffonts.googleapis.com%2Fcss%3Ffamily%3DRoboto;" parent="gleBi-C2RpiT2ec_90GJ-3" vertex="1" connectable="0">
          <mxGeometry x="-0.6643" y="-2" relative="1" as="geometry">
            <mxPoint x="93" y="1" as="offset" />
          </mxGeometry>
        </mxCell>
        <mxCell id="s_u18fh8TWqF_D3X__ss-1" value="&lt;b style=&quot;font-size: 15px;&quot;&gt;Client&lt;/b&gt;" style="rounded=0;whiteSpace=wrap;html=1;fillColor=#dae8fc;strokeColor=#6c8ebf;fontSize=15;fontFamily=Roboto;fontSource=https%3A%2F%2Ffonts.googleapis.com%2Fcss%3Ffamily%3DRoboto;" parent="1" vertex="1">
          <mxGeometry x="80" y="240" width="120" height="120" as="geometry" />
        </mxCell>
        <mxCell id="gleBi-C2RpiT2ec_90GJ-5" style="edgeStyle=orthogonalEdgeStyle;rounded=0;orthogonalLoop=1;jettySize=auto;html=1;entryX=1;entryY=0.75;entryDx=0;entryDy=0;fontSize=15;fontColor=#CC0000;fillColor=#ffe6cc;strokeColor=#d79b00;" parent="1" source="s_u18fh8TWqF_D3X__ss-4" target="s_u18fh8TWqF_D3X__ss-1" edge="1">
          <mxGeometry relative="1" as="geometry">
            <Array as="points">
              <mxPoint x="410" y="330" />
              <mxPoint x="410" y="330" />
            </Array>
          </mxGeometry>
        </mxCell>
        <mxCell id="gleBi-C2RpiT2ec_90GJ-6" value="(B) Access Token&lt;br&gt;(no Refresh Token)" style="edgeLabel;html=1;align=center;verticalAlign=middle;resizable=0;points=[];fontSize=15;fontColor=#CC6600;fontFamily=Roboto;fontSource=https%3A%2F%2Ffonts.googleapis.com%2Fcss%3Ffamily%3DRoboto;" parent="gleBi-C2RpiT2ec_90GJ-5" vertex="1" connectable="0">
          <mxGeometry x="0.3286" y="2" relative="1" as="geometry">
            <mxPoint x="45" y="-3" as="offset" />
          </mxGeometry>
        </mxCell>
        <mxCell id="s_u18fh8TWqF_D3X__ss-4" value="&lt;b style=&quot;font-size: 15px;&quot;&gt;Authorization&lt;br style=&quot;font-size: 15px;&quot;&gt;Server&lt;br style=&quot;font-size: 15px;&quot;&gt;&lt;/b&gt;" style="rounded=0;whiteSpace=wrap;html=1;fillColor=#f8cecc;strokeColor=#b85450;fontSize=15;fontFamily=Roboto;fontSource=https%3A%2F%2Ffonts.googleapis.com%2Fcss%3Ffamily%3DRoboto;" parent="1" vertex="1">
          <mxGeometry x="480" y="240" width="120" height="120" as="geometry" />
        </mxCell>
      </root>
    </mxGraphModel>
  </diagram>
</mxfile>
